#define corner_width 8
#define corner_height 16
static unsigned char corner_bits[] = {
   0x00, 0x00, 0x1e, 0x0e, 0x06, 0x02, 0x00, 0x00, 0x00, 0x00, 0x00, 0x00,
   0x00, 0x00, 0x00, 0x00 };
https://new.express.adobe.com/?showCsatOnExportOnce=True&context.guid=e4780fe7-25af-44bb-9806-20f43237cfe0%3Ftrackingid%3DCMR425ZL&mv=email&context.init=false&%24web_only=true&_branch_match_id=1160426583144652651&_branch_referrer=H4sIAAAAAAAAAzXMSw6CMBAA0NPIrrRpi6AJMQZjXOjGpbspneIEKA0dP8d35TvAezKnvJcS%2FOIwJ1jHtGQWH3QlpFROFEeJkruLDtx5fXSHfomMXy6HF%2FkWbd2ogLXQFQRhrXNi16it0CpYo03dB1Qbc%2BYV%2BpHiQH5jTt3tbnX1uBbzu8UZaCr%2BJUXiNsCU8QcXUS6hlwAAAA%3D%3D
